HIERARCHY
ROOT Hips
{
	OFFSET -14.64140 90.27770 -84.91600
	CHANNELS 6 Xposition Yposition Zposition Zrotation Xrotation Yrotation
	JOINT Spine
	{
		OFFSET 0.00000 13.20850 -1.60436
		CHANNELS 3 Zrotation Xrotation Yrotation
		JOINT Spine1
		{
			OFFSET 0.00000 8.61716 0.00000
			CHANNELS 3 Zrotation Xrotation Yrotation
			JOINT Spine2
			{
				OFFSET 0.00000 8.61717 0.00000
				CHANNELS 3 Zrotation Xrotation Yrotation
				JOINT Spine3
				{
					OFFSET 0.00000 8.61717 0.00000
					CHANNELS 3 Zrotation Xrotation Yrotation
					JOINT Neck
					{
						OFFSET 0.00000 11.07920 1.10792
						CHANNELS 3 Zrotation Xrotation Yrotation
						JOINT Neck1
						{
							OFFSET 0.00000 7.08032 0.00000
							CHANNELS 3 Zrotation Xrotation Yrotation
							JOINT Head
							{
								OFFSET 0.00000 7.08031 0.00000
								CHANNELS 3 Zrotation Xrotation Yrotation
								End site
								{
									OFFSET 0.00000 0.00000 0.00000
								}
							}
						}
					}
					JOINT RightShoulder
					{
						OFFSET -0.01000 7.91373 5.19711
						CHANNELS 3 Zrotation Xrotation Yrotation
						JOINT RightArm
						{
							OFFSET -18.41580 0.00000 0.00000
							CHANNELS 3 Zrotation Xrotation Yrotation
							JOINT RightForeArm
							{
								OFFSET -29.11090 0.00000 0.00000
								CHANNELS 3 Zrotation Xrotation Yrotation
								JOINT RightHand
								{
									OFFSET -24.65040 0.00000 0.00000
									CHANNELS 3 Zrotation Xrotation Yrotation
									JOINT RightHandThumb1
									{
										OFFSET -5.35114 -0.85590 3.97906
										CHANNELS 3 Zrotation Xrotation Yrotation
										JOINT RightHandThumb2
										{
											OFFSET -4.52789 0.00000 0.00000
											CHANNELS 3 Zrotation Xrotation Yrotation
											JOINT RightHandThumb3
											{
												OFFSET -2.46976 0.00000 0.00000
												CHANNELS 3 Zrotation Xrotation Yrotation
												End site
												{
													OFFSET 0.00000 0.00000 0.00000
												}
											}
										}
									}
									JOINT RightHandIndex1
									{
										OFFSET -14.26970 0.00000 2.88139
										CHANNELS 3 Zrotation Xrotation Yrotation
										JOINT RightHandIndex2
										{
											OFFSET -5.48836 0.00000 0.00000
											CHANNELS 3 Zrotation Xrotation Yrotation
											JOINT RightHandIndex3
											{
												OFFSET -3.01859 0.00000 0.00000
												CHANNELS 3 Zrotation Xrotation Yrotation
												End site
												{
													OFFSET 0.00000 0.00000 0.00000
												}
											}
										}
									}
									JOINT RightHandMiddle1
									{
										OFFSET -14.26970 0.00000 -0.09147
										CHANNELS 3 Zrotation Xrotation Yrotation
										JOINT RightHandMiddle2
										{
											OFFSET -6.17441 0.00000 0.00000
											CHANNELS 3 Zrotation Xrotation Yrotation
											JOINT RightHandMiddle3
											{
												OFFSET -3.56743 0.00000 0.00000
												CHANNELS 3 Zrotation Xrotation Yrotation
												End site
												{
													OFFSET 0.00000 0.00000 0.00000
												}
											}
										}
									}
									JOINT RightHandRing1
									{
										OFFSET -12.69180 0.00000 -3.06433
										CHANNELS 3 Zrotation Xrotation Yrotation
										JOINT RightHandRing2
										{
											OFFSET -5.62556 0.00000 0.00000
											CHANNELS 3 Zrotation Xrotation Yrotation
											JOINT RightHandRing3
											{
												OFFSET -3.56744 0.00000 0.00000
												CHANNELS 3 Zrotation Xrotation Yrotation
												End site
												{
													OFFSET 0.00000 0.00000 0.00000
												}
											}
										}
									}
									JOINT RightHandPinky1
									{
										OFFSET -11.11390 0.00000 -6.03719
										CHANNELS 3 Zrotation Xrotation Yrotation
										JOINT RightHandPinky2
										{
											OFFSET -4.52789 0.00000 0.00000
											CHANNELS 3 Zrotation Xrotation Yrotation
											JOINT RightHandPinky3
											{
												OFFSET -2.46976 0.00000 0.00000
												CHANNELS 3 Zrotation Xrotation Yrotation
												End site
												{
													OFFSET 0.00000 0.00000 0.00000
												}
											}
										}
									}
								}
							}
						}
					}
					JOINT LeftShoulder
					{
						OFFSET 0.01000 7.91373 5.19711
						CHANNELS 3 Zrotation Xrotation Yrotation
						JOINT LeftArm
						{
							OFFSET 18.41580 0.00000 0.00000
							CHANNELS 3 Zrotation Xrotation Yrotation
							JOINT LeftForeArm
							{
								OFFSET 29.11090 0.00000 0.00000
								CHANNELS 3 Zrotation Xrotation Yrotation
								JOINT LeftHand
								{
									OFFSET 24.65040 0.00000 0.00000
									CHANNELS 3 Zrotation Xrotation Yrotation
									JOINT LeftHandThumb1
									{
										OFFSET 5.35114 -0.85590 3.97906
										CHANNELS 3 Zrotation Xrotation Yrotation
										JOINT LeftHandThumb2
										{
											OFFSET 4.52789 0.00000 0.00000
											CHANNELS 3 Zrotation Xrotation Yrotation
											JOINT LeftHandThumb3
											{
												OFFSET 2.46977 0.00000 0.00000
												CHANNELS 3 Zrotation Xrotation Yrotation
												End site
												{
													OFFSET 0.00000 0.00000 0.00000
												}
											}
										}
									}
									JOINT LeftHandIndex1
									{
										OFFSET 14.26970 0.00000 2.88139
										CHANNELS 3 Zrotation Xrotation Yrotation
										JOINT LeftHandIndex2
										{
											OFFSET 5.48836 0.00000 0.00000
											CHANNELS 3 Zrotation Xrotation Yrotation
											JOINT LeftHandIndex3
											{
												OFFSET 3.01859 0.00000 0.00000
												CHANNELS 3 Zrotation Xrotation Yrotation
												End site
												{
													OFFSET 0.00000 0.00000 0.00000
												}
											}
										}
									}
									JOINT LeftHandMiddle1
									{
										OFFSET 14.26970 0.00000 -0.09147
										CHANNELS 3 Zrotation Xrotation Yrotation
										JOINT LeftHandMiddle2
										{
											OFFSET 6.17440 0.00000 0.00000
											CHANNELS 3 Zrotation Xrotation Yrotation
											JOINT LeftHandMiddle3
											{
												OFFSET 3.56744 0.00000 0.00000
												CHANNELS 3 Zrotation Xrotation Yrotation
												End site
												{
													OFFSET 0.00000 0.00000 0.00000
												}
											}
										}
									}
									JOINT LeftHandRing1
									{
										OFFSET 12.69180 0.00000 -3.06433
										CHANNELS 3 Zrotation Xrotation Yrotation
										JOINT LeftHandRing2
										{
											OFFSET 5.62556 0.00000 0.00000
											CHANNELS 3 Zrotation Xrotation Yrotation
											JOINT LeftHandRing3
											{
												OFFSET 3.56744 0.00000 0.00000
												CHANNELS 3 Zrotation Xrotation Yrotation
												End site
												{
													OFFSET 0.00000 0.00000 0.00000
												}
											}
										}
									}
									JOINT LeftHandPinky1
									{
										OFFSET 11.11390 0.00000 -6.03719
										CHANNELS 3 Zrotation Xrotation Yrotation
										JOINT LeftHandPinky2
										{
											OFFSET 4.52789 0.00000 0.00000
											CHANNELS 3 Zrotation Xrotation Yrotation
											JOINT LeftHandPinky3
											{
												OFFSET 2.46976 0.00000 0.00000
												CHANNELS 3 Zrotation Xrotation Yrotation
												End site
												{
													OFFSET 0.00000 0.00000 0.00000
												}
											}
										}
									}
								}
							}
						}
					}
					JOINT pCube4
					{
						OFFSET 0.00000 10.91090 1.10792
						CHANNELS 3 Zrotation Xrotation Yrotation
						End site
						{
							OFFSET 0.00000 0.00000 0.00000
						}
					}
				}
			}
		}
	}
	JOINT RightUpLeg
	{
		OFFSET -9.98441 0.00000 0.00000
		CHANNELS 3 Zrotation Xrotation Yrotation
		JOINT RightLeg
		{
			OFFSET 0.00000 -42.11790 0.00000
			CHANNELS 3 Zrotation Xrotation Yrotation
			JOINT RightFoot
			{
				OFFSET 0.00000 -45.00020 -0.00001
				CHANNELS 3 Zrotation Xrotation Yrotation
				JOINT RightForeFoot
				{
					OFFSET 0.00000 -3.74820 0.00000
					CHANNELS 3 Zrotation Xrotation Yrotation
					JOINT RightToeBase
					{
						OFFSET 0.00000 0.06325 14.43120
						CHANNELS 3 Zrotation Xrotation Yrotation
						End site
						{
							OFFSET 0.00000 0.00000 0.00000
						}
					}
				}
			}
		}
	}
	JOINT LeftUpLeg
	{
		OFFSET 9.98441 0.00000 0.00000
		CHANNELS 3 Zrotation Xrotation Yrotation
		JOINT LeftLeg
		{
			OFFSET 0.00000 -42.11800 0.00000
			CHANNELS 3 Zrotation Xrotation Yrotation
			JOINT LeftFoot
			{
				OFFSET 0.00000 -45.00070 0.00000
				CHANNELS 3 Zrotation Xrotation Yrotation
				JOINT LeftForeFoot
				{
					OFFSET 0.00000 -3.74824 0.00000
					CHANNELS 3 Zrotation Xrotation Yrotation
					JOINT LeftToeBase
					{
						OFFSET 0.00000 0.06325 14.43110
						CHANNELS 3 Zrotation Xrotation Yrotation
						End site
						{
							OFFSET 0.00000 0.00000 0.00000
						}
					}
				}
			}
		}
	}
}
MOTION
Frames: 4
Frame Time: 0.050000
-0.022482314878412915 0.026641410343995156 -0.026372491417584406 0.0019398085893095483 0.013947669083323897 0.04295940869481363 -3.243062137425627 -0.1588585888687399 -0.8417898089300311 -1.0075440666421807 3.751885107597861 0.4018450818338936 -1.3272833510294513 -1.982982924480974 -0.12476718831917723 -0.2688580158116117 0.34692857703244784 -0.6657396075239931 0.2576345655810393 12.254731742636796 -0.31088109652966517 0.09443954815786373 -1.2521210693375902 -2.8431503059072347 0.5125737462408472 -17.319983676353228 -0.2936293758351674 -5.267886790460204 2.008106490630294 -14.666429881759527 71.88018726355597 30.876609884698887 11.284457328803088 1.3174082171643262 3.6190265085615425 91.27204772902104 17.323930582187838 -0.6704573356466367 -4.312486450210315 4.523961946254036 -0.14142534049521832 -1.5851514353983664 -0.035533005985371915 0.02786235062124176 -56.212624679377086 -0.03751188893817728 0.011277749023121265 -56.2682180413888 -38.77359626347701 0.01983229378366327 -0.028365802230491455 -0.02047360204525414 0.0007982465173799036 0.049895229691182215 0.026740261377866274 -0.019574626558471125 -0.0037649418020681506 -36.69488084987359 -0.026666292525784365 0.02959921860430663 -0.038683913064645456 0.02208026793026228 -0.00979210816215674 0.001777907673213784 0.029486425458681662 -0.008311692833331942 -19.7244846907696 -0.02173488528003112 0.020122758768167416 -0.0171056733299941 0.007575645874358377 -0.004363601496965146 -0.03203234543587196 0.01278053265149797 0.04479145842922628 24.08544128348978 -0.023426960211608793 0.009668443059856138 28.81849789680162 0.04863670560050359 -0.02812501867172837 28.865385103276036 0.043456046792885096 -0.028013957587438413 4.883556247255422 1.1769411433858514 13.186437204330387 -74.02193959365034 30.63007292572868 -3.6372576481221333 1.415649760951321 -8.05061518696254 -40.61160302336667 -15.65088539596495 -2.3464016826716545 5.543231961548663 -0.4957652178791067 0.06256482820513118 -8.123168886424805 -0.009515662205579424 -0.006859488704907602 44.5547147725712 -0.019153702129250612 -0.030663124560330993 44.55441518273938 12.460666838100176 -0.047561286308851695 0.010353551045431456 0.0064328760574290525 0.013395812042147992 -0.0006219006142711226 0.028789792598274272 -0.03444072712046115 -0.042281394295733854 11.103425073923889 -0.04218281471625699 0.014729644926241008 0.0008602333355211669 0.015673024169309144 0.0353238901237271 0.01335033284550514 -0.028839811228550536 0.016167611071645063 4.818670869622021 -0.024444317020017207 -0.0033089231816981752 -0.01496567438055269 0.004016150418025394 0.00856958665410393 -0.03890139550986481 -0.014403039687222124 -0.001977693521229482 -5.576521223934703 0.008544361301200206 0.043963132938419754 -6.718427049285316 -0.04070878311571166 -0.038909938405407525 -6.713621929447947 -0.040532367498622573 -0.022201802197062272 0.04582594788203598 0.03438330625941416 0.0008677187114225603 8.024629983671103 3.5284127292584087 -19.2428948390187 0.016844846224363223 10.388933771725165 0.033850871665927006 -5.600021956322414 -15.626822099174479 3.199627499323289 -0.04856419241930863 0.028108121944066835 0.015882921698779303 0.044163655456645246 4.728867886394985 -0.021556001700203203 12.440968455995664 -8.25647631471598 6.911296972223724 -0.04254269300010445 46.35035100480568 -0.020289943227454078 -4.371191233376455 -14.771021867866015 -3.823044893643902 -0.023429234672073647 0.01902109869395554 -0.038240054471946255 0.0154255546839122 -10.734572830172478 -0.003716486732395331 
0.009313067047931499 0.04771003063826335 0.0031615595031669326 0.014681111451865809 -0.0005377676148607405 -0.003710741493234186 -3.1692808967934107 -0.22945324019204758 -0.8295615325168614 -0.956964772739109 3.7287376306801496 0.44333021321394933 -1.293653356506517 -1.9446540435921045 0.01806096727585072 -0.19137164805883217 0.34453404211713956 -0.6754761488213326 0.3428598796507472 12.161966005580032 -0.7250809144394345 0.15797372152904257 -1.2446938314477782 -3.824622279436533 0.6225089370973592 -17.371881209188572 -0.37438826155349586 -5.3264261366922865 1.9373756498747565 -14.574792627234913 70.81060142152673 31.32346552513588 11.875284549149386 1.9704445711176672 3.4771132015195327 91.39247699511391 16.667677658742136 -0.6417007697179955 -4.083278517558126 4.529192791639309 -0.12958390476662326 -1.621333592156908 0.02223304686777003 -0.04667669950651457 -56.25752536783303 0.048646961490316776 0.02096626770046275 -56.20428383318485 -38.800923272104875 -0.018547441413807493 0.021286034816824388 0.020582614597548555 -0.03252633117756806 -0.03419282915416861 0.045097580532447654 0.019068676888210255 0.019567627843300586 -36.67822189886229 0.0063869822001108 -0.02613674749051793 0.046995001736104075 -0.03811903965004647 0.04965238069274881 0.035366424609084936 -0.0034929666899041626 -0.011478029432684653 -19.797339482233117 -0.036955942488561336 -0.005292440053161627 -0.04989784801537754 0.025589310820502885 -0.04438187473491576 -0.015776948492908043 0.0013791964876929688 -0.018741049405396285 24.07025508561395 -0.04640349984815933 0.01718009811205707 28.887114278829205 -0.019146205887356816 0.005377621976886348 28.848633494226494 -0.01712619776603454 -0.021162215710035327 4.591137778580786 1.0983197854435638 13.079330083897549 -73.86995480650612 30.97995107360559 -3.279376123071542 0.594659603089643 -7.655671473519465 -40.626300102973616 -15.540740355528179 -2.2432405836263816 5.249149332492275 -0.4815476705772566 0.06363048578805353 -8.079711211430455 0.004714345282557555 0.023346071027798825 44.53057417466275 0.013653010616444491 0.02140833190147505 44.55039852422745 12.478768994193903 -0.014685729755052904 0.029926059530944772 -0.0350871316567028 0.04424585044115408 0.04973782002143173 -0.02734763476794021 0.018246228620018536 0.015409202455370759 11.134969319288604 -0.026108434415320656 -0.026555547512498213 -0.02684969225607984 -0.016156594457787887 0.0476589824304722 0.006100724713257993 0.01945881959680123 0.022972439461497324 4.805474974257762 0.030469726821275876 -0.030548605959815 0.013622130961123633 0.01060844418698991 -0.03827145827776986 -0.023009918155240457 -0.002674948515893596 0.048080160852212415 -5.613163031439344 0.0418935892023817 -0.02605548467664534 -6.71632492745248 -0.027274626141256756 0.024485159039374937 -6.698597715452548 0.04697851034192549 0.04014145346274346 -0.020966119920764813 -0.037320611327744675 0.04275678714543829 8.057194303494056 3.4639442980041304 -19.24506308425147 0.03178979280135939 10.363612727724016 0.02405881162670916 -5.613621696524862 -15.686826763617013 3.186760833511692 0.04268858341678283 -0.009432560837975475 0.0028475475149155236 0.005696543941506662 4.651846185368374 0.030006899182289666 12.461319570069929 -8.211020209196104 6.862193344464888 -0.03334325288244562 46.410863276505495 -0.020509039849768495 -4.312893194432434 -14.7394915766232 -3.832736412833688 0.00040126429530249765 -0.010632186326739674 0.012101069003136644 0.020353876124611932 -10.718706304972766 0.006175034153936869 
-0.014657580496214864 0.029560717107138534 -0.0206745180413751 0.017467907376106522 0.002940381242577185 0.017720035391718122 -3.0355828263293025 -0.3276142664564359 -0.7907229572657801 -0.9672840639216098 3.7670644450720485 0.4115986715938026 -1.3184357367434387 -1.8799037141962416 0.05217568049118971 -0.0011292003434852024 0.3267522981434222 -0.6296054392496578 0.4854059241938516 11.94335051536886 -1.0448633183630693 0.06381220199975295 -1.3065942315751853 -4.8549040188221655 0.669656009350296 -17.356332759318946 -0.4152439309577589 -5.323819690982146 1.9607994550929906 -14.480914972353094 69.79405708750859 32.07382301748708 12.522018381929586 2.2072369861266017 3.3204054912166208 90.6141473051518 16.100126447429638 -0.6368421133775712 -3.948309564495649 4.514221751405897 -0.17645796141134662 -1.6340628320406232 -0.030256405573888846 -0.010701328328339482 -56.199584159878896 -0.01927421883145098 0.04897063302635932 -56.2605546063771 -38.774760803480234 0.039568144208340775 -0.03280427149593115 0.0053700221373563055 -0.03357467983059319 0.03326453406880748 0.04607142706595323 -0.033062400122312804 0.04049176147565343 -36.686143236362575 0.018797860978170197 0.04164921251131344 -0.04707204725002792 0.0027813831994718224 0.00012627140944506462 -0.01372463832771834 -0.03444224524858048 0.006971735454456115 -19.777347227389143 0.0008169439988639954 -0.013552433131081528 0.040907547047923896 -0.006302374923476578 -0.0005322671846113062 0.044914716430486494 -0.02200541711082542 0.004218638830587481 24.044128736311258 -0.006626152105322976 0.014357970007478434 28.89056451723201 0.04040311195317227 -0.0380276594227511 28.858484532114723 0.03408569995193469 0.023185472771388705 4.357134599617068 1.0172212276986143 13.043607970345724 -73.57876663677837 31.317089196512978 -2.773655513640442 0.33368272226409335 -7.640761753564107 -40.71336505274573 -15.358811329611582 -1.99899509210699 4.908078059439731 -0.48751595143218873 0.09083254106275446 -8.085674214748446 0.009925827632006166 -0.012417534813896371 44.580174161714886 -0.01902993142213998 0.012054360362627097 44.61309976234442 12.467949643125474 0.028027068195406173 0.034289125294372454 0.02491034054338582 -0.04635851706391657 -0.021397070683626323 0.0020146903007459776 0.003824177894989791 0.021611969713571908 11.076318866798514 0.04667453966136726 0.04069705146130604 0.03359007996039211 -0.020483167458947616 0.026676504723308018 0.022688741467909737 -0.0028863738171884664 -0.010487913368010984 4.7267953762268675 0.02011263547521832 0.010274526395717059 -0.009242602213952058 0.015296094287944748 -0.004931903732267049 0.01946942704075992 -0.01577790235006446 -0.039013627708756084 -5.599971344105324 -0.021596157060217946 0.016201926356771645 -6.732366511077263 -0.029497921733523533 0.035955481591121594 -6.716045747611694 -0.041373109427149835 0.042397466070126136 -0.007844280444673555 0.004748521920454989 0.023275697789019684 8.080709037004056 3.5245861627098405 -19.26823147923401 0.021703814395660326 10.397230566376136 0.03720757171880602 -5.643282330432877 -15.658643299403783 3.2347740647111944 -0.026047906273949907 0.026177202969801524 0.018215976207476853 0.027567604510367757 4.674625417475383 0.028465482645344365 12.465360958073404 -8.24537679603174 6.899249649539518 0.04318591234154461 46.4184506247753 0.03570311839137279 -4.356349784496985 -14.733657740307144 -3.7917003592102168 -0.02223404218635922 -0.00551397540042022 0.03352841061048954 0.028760920066490305 -10.776628098671983 -0.03327775894515161 
0.0015986702378547575 0.03205576842120366 -0.00722088572909893 0.04080454575635001 0.021773012607790312 0.010091819673764754 -2.8616136324723245 -0.38001651813427584 -0.852615976712943 -1.0100291227575067 3.7963615652886316 0.41552395809584647 -1.3552246469641254 -1.8839933232531014 0.19086475724499052 0.06088218166105287 0.2689809499067237 -0.6267689505413024 0.6425200207806663 11.925108843336723 -1.3341198143623645 0.08060773304557746 -1.2704076295939104 -5.646177027849928 0.7425899174439526 -17.367634282749737 -0.5093637086758247 -5.409186407470423 1.9876562744112187 -14.450101130814225 69.01432585304262 32.99467195836874 13.705100685259998 2.0314757767129747 2.889832193986125 90.64748260248145 15.852508859061889 -0.6345539551059982 -3.7103182957186607 4.4927064998067054 -0.1261776013720818 -1.570751619895797 0.008530467446658689 0.02152236427348579 -56.23255857872968 -0.0197711772401473 0.0319875510950425 -56.22406479445253 -38.73624099230519 -0.04748174677362876 0.01554455490082178 0.02341183395464185 0.04650039723120702 0.008534245468216085 -0.009916564550139395 -0.030026770989369653 0.029201164907532485 -36.71839557241078 -0.03843160978999719 -0.005858025525959171 0.03247046272324854 -0.024545170290381033 0.03885486056877123 -0.037214011565112226 0.04645691501983586 0.041318013323872665 -19.797672786193484 0.013606237706205985 -0.001311280515717542 -0.034448149353828846 -0.01074179238371718 0.02592859348834547 -0.03461332847585521 0.0014672673907256827 -0.03873802428686651 24.0517215345046 0.025208025376600284 -0.02085973214403818 28.81775205752838 0.03328518212633069 -0.04347975608255389 28.891106333544005 0.029542819578665086 0.03933960502400227 4.151395163890901 1.0106451954251374 12.962556424441171 -73.4071426284179 31.465252214416143 -2.4103270307321325 0.5572275616206483 -8.039296187755106 -41.00534867634247 -15.225811800224566 -1.8265580470793574 4.618032054703841 -0.4449655740288064 0.10073949740102373 -8.13315508777639 0.002901956089085944 0.021165889256822702 44.603236733178534 0.02051530348041034 0.0356528675627013 44.5865642669913 12.479162053070343 -0.02279159794338544 -0.043058888202770665 0.028282618476586214 0.015658388442963547 0.012268594469638362 -0.018177972327931547 0.02570641853454159 -0.048464691165013916 11.112525690794547 0.013368085485932863 -0.004604603059832396 -0.04895210385272471 -0.030952827651247523 -0.04517723573361375 -0.02689486477813041 0.015271738493645685 -0.0213120627748323 4.78888969371877 -0.004477033114722547 0.027986059290304843 -0.013236956043431317 0.04773285171530346 -0.008536047146995802 0.029722301250429673 0.021049870138498808 -0.013235133530111517 -5.597490634819787 -0.044494858623964115 0.04095695436953481 -6.710526311138379 -0.04970741093739033 -0.013156887582158503 -6.7405956853864595 -0.002098495339194681 -0.013966329173366659 -0.001056653065496662 -0.01061596075737648 -0.04040505747370713 8.039100267247392 3.4656298504269545 -19.254751882574052 -0.0175040169962519 10.380279380105625 0.03563594225874346 -5.583646566087664 -15.708930210798824 3.145251277614151 -0.019434491087202237 -0.002940345965869444 -0.03562879107283612 -0.03482669397296323 4.71972830416747 0.011708124285791788 12.410153262561252 -8.254705890109658 6.84444777463649 0.0360850978071666 46.34060183618499 -0.025246427216715193 -4.291280296906006 -14.727324917142926 -3.7959459038385353 0.007463787766719336 -0.005631564859208896 -0.044996721322148894 -0.01646861502907459 -10.740915134090386 -0.014603344358924943 
